<svg t="1660823729680" class="icon" viewBox="0 0 1024 1024" version="1.1" xmlns="http://www.w3.org/2000/svg" p-id="2045" width="200" height="200"><path d="M804.72241 347.299243H96.030933c-27.196133 0-47.993298 20.797164-47.993298 47.993298v513.521894h803.077815V395.292541c1.600258-25.595876-20.795102-47.993298-46.39304-47.993298z" fill="#FFFFFF" p-id="2046"></path><path d="M852.715708 926.413146H48.037635c-9.599484 0-15.998453-6.398969-15.998453-15.998453V395.292541c0-35.19536 28.796391-63.989689 63.989689-63.989689h707.093281c35.19536 0 63.989689 28.796391 63.989689 63.989689v513.521894c1.60232 9.599484-6.396907 17.598711-14.396133 17.598711zM64.036088 894.41624h771.082971V395.292541c0-17.596649-14.398196-31.994845-31.994844-31.994845H96.030933c-17.596649 0-31.994845 14.398196-31.994845 31.994845v499.123699z" fill="#193651" p-id="2047"></path><path d="M112.027324 411.290994h675.098437v463.930401H112.027324z" fill="#2EA2DB" p-id="2048"></path><path d="M583.956952 819.228871v49.591493H283.201289v-49.591493H16.04279v108.782471c0 43.192525 35.19536 79.988142 79.988143 79.988142h710.291735c43.192525 0 79.988142-35.19536 79.988142-79.988142v-108.782471H583.956952z" fill="#E1E6E9" p-id="2049"></path><path d="M806.322668 1023.997938H96.030933c-52.792009 0-95.984534-43.192525-95.984534-95.984534v-108.782471c0-9.599484 6.398969-15.998453 15.998454-15.998454h267.156436c9.599484 0 15.998453 6.398969 15.998453 15.998454v33.595102h268.758756v-33.595102c0-9.599484 6.398969-15.998453 15.998454-15.998454h302.353858c9.599484 0 15.998453 6.398969 15.998454 15.998454v108.782471c-1.600258 52.789947-43.194587 95.984534-95.986596 95.984534z m-774.283486-188.772676v92.78608c0 35.19536 28.796391 63.989689 63.989689 63.989689h710.291735c35.19536 0 63.989689-28.796391 63.989689-63.989689v-92.78608H599.953343v33.595102c0 9.599484-6.398969 15.998453-15.998453 15.998453H283.201289c-9.599484 0-15.998453-6.398969-15.998453-15.998453v-33.595102H32.039182z" fill="#193651" p-id="2050"></path><path d="M753.530659 25.748478c-179.173192-43.192525-358.346383 65.589947-401.538908 244.763138-23.995618 102.383502 1.600258 204.769067 60.791236 281.556694l-49.591494 179.173192 190.370872-75.189432c14.398196 6.398969 28.796391 11.19768 44.792782 14.398196 179.173192 43.192525 358.346383-67.190205 401.538908-244.763139 41.592267-177.572934-68.790462-358.344321-246.363396-399.938649z" fill="#FFFFFF" p-id="2051"></path><path d="M351.991751 744.039439c-4.798711-4.798711-6.398969-9.599484-4.798711-15.998453l47.993298-172.774223c-62.391493-83.186596-83.186596-187.172418-59.190978-287.955663C382.386338 78.540487 571.159014-35.042758 756.731174 9.750024c187.172418 44.792782 302.353859 233.565458 257.561077 420.735815-46.39304 190.370872-235.163654 302.353859-420.735815 257.561076-12.797938-3.200516-25.595876-6.398969-39.994071-12.797938l-183.971903 71.988916c-6.401031 1.600258-12.8 0.002062-17.598711-3.198454z m15.998454-470.32937c-22.397422 94.386338-1.600258 191.971129 57.59072 267.160561 3.200516 4.798711 4.798711 9.599484 3.200515 14.398196l-41.594329 148.776542 159.976285-62.391493c3.200516-1.600258 7.999227-1.600258 11.19768 0 15.998453 6.398969 28.796391 11.19768 41.594329 14.398195 169.573707 39.994071 340.747672-62.391493 380.741743-233.565458 41.594329-169.573707-63.989689-340.747672-233.565458-380.741743C580.756436 0.152602 409.582471 102.536104 367.990205 273.710069z" fill="#193651" p-id="2052"></path><path d="M787.125761 342.500532v-44.792783c0-17.596649-14.398196-31.994845-31.994844-31.994844H475.172418c-17.596649 0-31.994845 14.398196-31.994844 31.994844v182.371645c0 17.596649 14.398196 31.994845 31.994844 31.994845h279.958499c17.596649 0 31.994845-14.398196 31.994844-31.994845V435.286612l119.982214 78.387885V264.112647l-119.982214 78.387885z" fill="#F16051" p-id="2053"></path><path d="M507.167263 329.702594h123.180667v59.190978h-123.180667z" fill="#FFFFFF" p-id="2054"></path><path d="M550.36185 203.321411m-60.791236 0a60.791236 60.791236 0 1 0 121.582471 0 60.791236 60.791236 0 1 0-121.582471 0Z" fill="#F16051" p-id="2055"></path><path d="M673.542517 203.321411m-60.791236 0a60.791236 60.791236 0 1 0 121.582471 0 60.791236 60.791236 0 1 0-121.582471 0Z" fill="#F16051" p-id="2056"></path><path d="M348.791236 918.41392h31.994844v31.994844h-31.994844zM435.178347 918.41392h31.994845v31.994844h-31.994845z" fill="#193651" p-id="2057"></path><path d="M521.565458 918.41392h31.994845v31.994844h-31.994845z" fill="#193651" p-id="2058"></path></svg>